<svg width="108" height="65" viewBox="0 0 108 65" fill="none" xmlns="http://www.w3.org/2000/svg">
  <path d="M28.3313 43.9194C27.6215 44.2636 26.4698 44.2642 22.054 43.24C19.457 42.6377 15.0001 41.7352 12.296 41.0703C7.54269 39.9017 6.59093 38.6938 5.56544 37.5204C4.68239 36.51 3.8794 33.3543 3.23773 30.6268C2.83137 28.8995 3.00245 27.2352 3.32216 25.1671C3.56082 23.6233 4.19346 21.1212 4.69589 19.3111C5.4951 16.4316 6.28888 14.9636 6.86856 13.9883C7.55984 12.8252 9.0165 11.167 11.5186 8.90802C12.9468 7.61861 14.9899 6.41589 16.5216 5.53572C19.0213 4.0993 20.7573 3.63405 22.4277 3.33021C24.9705 2.86767 27.3216 2.97603 28.8843 3.1457C30.4653 3.31735 32.1815 4.01364 34.0242 4.68413C37.4803 5.94157 39.6401 7.30941 40.7421 8.21859C42.127 9.3612 43.3572 12.7438 44.3954 15.6768C44.869 17.0148 44.8797 18.3613 44.8906 20.5649C44.912 24.8993 44.7457 27.9947 44.6679 28.637C44.6121 29.2792 44.5233 29.9035 44.3901 30.4429C44.323 30.6864 44.2569 30.8685 43.7214 31.2616" stroke="black" stroke-width="6" stroke-linecap="round"/>
  <path d="M44.0703 30.8698C44.3711 30.6572 45.3791 29.9891 47.0056 29.6178C47.9955 29.3919 49.3781 29.8366 50.9183 30.7219C51.5044 31.0647 51.9726 31.3728 52.3559 31.6557C52.5391 31.7751 52.6992 31.8452 53.1061 32.1299" stroke="black" stroke-width="6" stroke-linecap="round"/>
  <path d="M53.4756 32.4963C53.4756 32.4515 53.364 31.8264 53.195 30.1376C52.9321 27.5102 53.3124 24.7266 53.6596 22.6097C53.9294 20.9651 54.3207 19.8473 54.9189 18.5145C56.9261 14.042 58.5741 12.2569 59.6343 10.9343C60.7048 9.59868 61.983 8.37224 63.1445 7.51058C64.4457 6.54524 66.5727 6.3332 70.8803 6.46002C73.0292 6.52329 74.6578 7.08421 77.1757 7.7992C79.2674 8.39317 80.966 9.47578 82.407 10.2153C83.7582 10.9087 84.7814 11.5788 85.652 12.2065C86.9399 13.1352 88.8817 14.7769 89.8195 15.5829C91.0892 16.674 91.8479 17.9737 93.0505 19.8067C93.8441 21.0163 94.433 22.2227 95.1585 23.6883C96.095 25.5802 96.3079 26.61 96.4982 27.8145C96.9279 30.5358 96.2847 31.7299 96.093 32.6831C95.9198 33.545 95.4302 34.4597 94.7991 35.4005C94.0528 36.5131 92.6441 37.5008 89.9257 39.0933C86.9446 40.8396 85.8292 40.9581 83.536 41.2102C82.7422 41.2824 81.8202 41.3812 80.8297 41.4542C79.8391 41.5272 78.8078 41.5715 77.7453 41.5493" stroke="black" stroke-width="6" stroke-linecap="round"/>
  <path d="M29.5769 44.5826C29.4893 44.8714 29.1361 45.7204 29.0129 46.5607C28.9388 47.0668 28.8028 47.669 28.6707 49.2769C28.1677 55.3981 28.6859 56.5765 29.1236 57.2835C29.5527 57.9766 31.1957 57.9897 32.556 58.2917C34.9399 58.8208 35.9053 59.1544 37.067 59.2223C37.5519 59.2506 39.7003 59.3342 42.8175 59.356C45.9081 59.3776 48.6671 59.7582 49.9585 59.8929C50.7469 59.9751 52.4029 60.1612 54.7387 60.3552C56.7729 60.5242 58.34 60.7472 59.446 60.8476C60.2884 60.9241 62.7424 61.1274 66.0357 61.2505C67.4427 61.3031 68.3169 61.1947 69.4753 60.5342C72.4564 58.8343 70.9056 56.3848 71.0917 55.0642C71.4236 52.7098 71.6712 51.2147 72.1296 49.2975C73.1382 45.4452 73.3359 44.6976 73.4121 44.2239C73.4666 43.952 73.5533 43.6159 73.6426 43.2695" stroke="black" stroke-width="6" stroke-linecap="round"/>
  <path d="M77.7497 41.6234C77.5401 41.6234 76.9966 41.557 76.1576 41.5557C75.5732 41.5547 75.2347 42.0839 74.8323 42.3844C74.6914 42.4182 74.5021 42.4182 74.3248 42.4016C74.1475 42.385 73.9881 42.3518 73.6426 42.217" stroke="black" stroke-width="6" stroke-linecap="round"/>
  <path d="M73.4282 56.2251C74.4393 56.8666 76.5266 57.6209 83.6721 57.4322C87.5312 57.3303 90.3566 55.2149 92.1164 53.6395C92.88 52.9558 93.5016 52.0922 94.3329 51.4967C95.6327 50.5657 97.5076 51.4831 102.191 53.3372C103.161 53.7038 103.44 53.7836 103.752 53.9178C104.064 54.052 104.4 54.2381 105 54.9135" stroke="black" stroke-width="6" stroke-linecap="round"/>
</svg>
